HIERARCHY
ROOT Hips
{
  OFFSET 5.72205e-005 65.662 3.42586
  CHANNELS 6 Xposition Yposition Zposition Zrotation Xrotation Yrotation
  JOINT Chest
  {
    OFFSET 0 8.7983 -4.7612
    CHANNELS 6 Xposition Yposition Zposition Zrotation Xrotation Yrotation
    JOINT Chest2
    {
      OFFSET 0 8.0291 0.4195
      CHANNELS 6 Xposition Yposition Zposition Zrotation Xrotation Yrotation
      JOINT Chest3
      {
        OFFSET 0 9.9351 -2.2114
        CHANNELS 6 Xposition Yposition Zposition Zrotation Xrotation Yrotation
        JOINT Neck
        {
          OFFSET 0 22.3885 -0.4656
          CHANNELS 6 Xposition Yposition Zposition Zrotation Xrotation Yrotation
          JOINT Head
          {
            OFFSET -0.0001 12.643 3.4389
            CHANNELS 6 Xposition Yposition Zposition Zrotation Xrotation Yrotation
            End Site
            {
              OFFSET 0.0001 17.6655 0.5274
            }
          }
        }
        JOINT LeftCollar
        {
          OFFSET 2.2603 21.606 7.4023
          CHANNELS 6 Xposition Yposition Zposition Zrotation Xrotation Yrotation
          JOINT LeftShoulder
          {
            OFFSET 13.5163 -1.1332 -5.0146
            CHANNELS 6 Xposition Yposition Zposition Zrotation Xrotation Yrotation
            JOINT LeftElbow
            {
              OFFSET -0.0995 -28.05 -0.2431
              CHANNELS 6 Xposition Yposition Zposition Zrotation Xrotation Yrotation
              JOINT LeftWrist
              {
                OFFSET 0.0679 -23.3996 -0.1402
                CHANNELS 6 Xposition Yposition Zposition Zrotation Xrotation Yrotation
                JOINT LeftFinger1
                {
                  OFFSET 0.7932 -9.069 2.5189
                  CHANNELS 6 Xposition Yposition Zposition Zrotation Xrotation Yrotation
                  JOINT LeftFinger11
                  {
                    OFFSET -0.8272 -3.3923 0.5977
                    CHANNELS 6 Xposition Yposition Zposition Zrotation Xrotation Yrotation
                    JOINT LeftFinger12
                    {
                      OFFSET -0.5649 -2.3158 0.4082
                      CHANNELS 6 Xposition Yposition Zposition Zrotation Xrotation Yrotation
                      End Site
                      {
                        OFFSET -0.4919 -1.6479 0.2673
                      }
                    }
                  }
                }
                JOINT LeftFinger2
                {
                  OFFSET 0.9159 -9.2044 0.2193
                  CHANNELS 6 Xposition Yposition Zposition Zrotation Xrotation Yrotation
                  JOINT LeftFinger21
                  {
                    OFFSET 0.0117 -4.1944 -0.0248
                    CHANNELS 6 Xposition Yposition Zposition Zrotation Xrotation Yrotation
                    JOINT LeftFinger22
                    {
                      OFFSET 0.0071 -2.3249 -0.0142
                      CHANNELS 6 Xposition Yposition Zposition Zrotation Xrotation Yrotation
                      End Site
                      {
                        OFFSET -0.1475 -2.0882 0.0028
                      }
                    }
                  }
                }
                JOINT LeftFinger3
                {
                  OFFSET 0.6113 -8.7231 -2.0637
                  CHANNELS 6 Xposition Yposition Zposition Zrotation Xrotation Yrotation
                  JOINT LeftFinger31
                  {
                    OFFSET -0.1927 -3.8059 -0.2383
                    CHANNELS 6 Xposition Yposition Zposition Zrotation Xrotation Yrotation
                    JOINT LeftFinger32
                    {
                      OFFSET -0.1091 -2.1688 -0.1362
                      CHANNELS 6 Xposition Yposition Zposition Zrotation Xrotation Yrotation
                      End Site
                      {
                        OFFSET -0.2358 -1.9176 -0.0906
                      }
                    }
                  }
                }
                JOINT LeftFinger4
                {
                  OFFSET -0.6151 -8.0947 -3.5641
                  CHANNELS 6 Xposition Yposition Zposition Zrotation Xrotation Yrotation
                  JOINT LeftFinger41
                  {
                    OFFSET -0.4882 -2.341 -0.6462
                    CHANNELS 6 Xposition Yposition Zposition Zrotation Xrotation Yrotation
                    JOINT LeftFinger42
                    {
                      OFFSET -0.3575 -1.7167 -0.4742
                      CHANNELS 6 Xposition Yposition Zposition Zrotation Xrotation Yrotation
                      End Site
                      {
                        OFFSET -0.4187 -1.5237 -0.3496
                      }
                    }
                  }
                }
                JOINT LeftFinger0
                {
                  OFFSET -1.42 -1.8761 1.4223
                  CHANNELS 6 Xposition Yposition Zposition Zrotation Xrotation Yrotation
                  JOINT LeftFinger01
                  {
                    OFFSET -1.1471 -3.4929 2.6334
                    CHANNELS 6 Xposition Yposition Zposition Zrotation Xrotation Yrotation
                    JOINT LeftFinger02
                    {
                      OFFSET -0.823 -2.3 1.6571
                      CHANNELS 6 Xposition Yposition Zposition Zrotation Xrotation Yrotation
                      End Site
                      {
                        OFFSET -0.5822 -1.6914 1.1582
                      }
                    }
                  }
                }
              }
            }
          }
        }
        JOINT RightCollar
        {
          OFFSET -2.2603 21.606 7.4023
          CHANNELS 6 Xposition Yposition Zposition Zrotation Xrotation Yrotation
          JOINT RightShoulder
          {
            OFFSET -13.5187 -1.1334 -5.0155
            CHANNELS 6 Xposition Yposition Zposition Zrotation Xrotation Yrotation
            JOINT RightElbow
            {
              OFFSET 0.0994 -28.0499 -0.2431
              CHANNELS 6 Xposition Yposition Zposition Zrotation Xrotation Yrotation
              JOINT RightWrist
              {
                OFFSET -0.0679 -23.3996 -0.1402
                CHANNELS 6 Xposition Yposition Zposition Zrotation Xrotation Yrotation
                JOINT RightFinger1
                {
                  OFFSET -0.7932 -9.0691 2.5189
                  CHANNELS 6 Xposition Yposition Zposition Zrotation Xrotation Yrotation
                  JOINT RightFinger11
                  {
                    OFFSET 0.8272 -3.3923 0.5977
                    CHANNELS 6 Xposition Yposition Zposition Zrotation Xrotation Yrotation
                    JOINT RightFinger12
                    {
                      OFFSET 0.565 -2.3158 0.4082
                      CHANNELS 6 Xposition Yposition Zposition Zrotation Xrotation Yrotation
                      End Site
                      {
                        OFFSET 0.4919 -1.6479 0.2673
                      }
                    }
                  }
                }
                JOINT RightFinger2
                {
                  OFFSET -0.916 -9.2044 0.2193
                  CHANNELS 6 Xposition Yposition Zposition Zrotation Xrotation Yrotation
                  JOINT RightFinger21
                  {
                    OFFSET -0.0117 -4.1944 -0.0248
                    CHANNELS 6 Xposition Yposition Zposition Zrotation Xrotation Yrotation
                    JOINT RightFinger22
                    {
                      OFFSET -0.0071 -2.3249 -0.0142
                      CHANNELS 6 Xposition Yposition Zposition Zrotation Xrotation Yrotation
                      End Site
                      {
                        OFFSET 0.1475 -2.0882 0.0028
                      }
                    }
                  }
                }
                JOINT RightFinger3
                {
                  OFFSET -0.6113 -8.7231 -2.0637
                  CHANNELS 6 Xposition Yposition Zposition Zrotation Xrotation Yrotation
                  JOINT RightFinger31
                  {
                    OFFSET 0.1927 -3.8059 -0.2383
                    CHANNELS 6 Xposition Yposition Zposition Zrotation Xrotation Yrotation
                    JOINT RightFinger32
                    {
                      OFFSET 0.1091 -2.1688 -0.1362
                      CHANNELS 6 Xposition Yposition Zposition Zrotation Xrotation Yrotation
                      End Site
                      {
                        OFFSET 0.2358 -1.9176 -0.0906
                      }
                    }
                  }
                }
                JOINT RightFinger4
                {
                  OFFSET 0.6151 -8.0947 -3.564
                  CHANNELS 6 Xposition Yposition Zposition Zrotation Xrotation Yrotation
                  JOINT RightFinger41
                  {
                    OFFSET 0.4882 -2.341 -0.6462
                    CHANNELS 6 Xposition Yposition Zposition Zrotation Xrotation Yrotation
                    JOINT RightFinger42
                    {
                      OFFSET 0.3574 -1.7166 -0.4742
                      CHANNELS 6 Xposition Yposition Zposition Zrotation Xrotation Yrotation
                      End Site
                      {
                        OFFSET 0.4187 -1.5237 -0.3496
                      }
                    }
                  }
                }
                JOINT RightFinger0
                {
                  OFFSET 1.4199 -1.8761 1.4221
                  CHANNELS 6 Xposition Yposition Zposition Zrotation Xrotation Yrotation
                  JOINT RightFinger01
                  {
                    OFFSET 1.1472 -3.4929 2.6336
                    CHANNELS 6 Xposition Yposition Zposition Zrotation Xrotation Yrotation
                    JOINT RightFinger02
                    {
                      OFFSET 0.8229 -2.3 1.6571
                      CHANNELS 6 Xposition Yposition Zposition Zrotation Xrotation Yrotation
                      End Site
                      {
                        OFFSET 0.5822 -1.6914 1.1582
                      }
                    }
                  }
                }
              }
            }
          }
        }
      }
    }
  }
  JOINT RightHip
  {
    OFFSET -9.412 3.9771 -0.7758
    CHANNELS 6 Xposition Yposition Zposition Zrotation Xrotation Yrotation
    JOINT RightKnee
    {
      OFFSET -0.7531 -40.938 0
      CHANNELS 6 Xposition Yposition Zposition Zrotation Xrotation Yrotation
      JOINT RightAnkle
      {
        OFFSET 0 -40.1986 0
        CHANNELS 6 Xposition Yposition Zposition Zrotation Xrotation Yrotation
        JOINT RightToe
        {
          OFFSET 0 -4.4182 9.239
          CHANNELS 6 Xposition Yposition Zposition Zrotation Xrotation Yrotation
          End Site
          {
            OFFSET 0 0 6.1981
          }
        }
      }
    }
  }
  JOINT LeftHip
  {
    OFFSET 9.4119 3.9773 -0.7758
    CHANNELS 6 Xposition Yposition Zposition Zrotation Xrotation Yrotation
    JOINT LeftKnee
    {
      OFFSET 0.7532 -40.9383 0
      CHANNELS 6 Xposition Yposition Zposition Zrotation Xrotation Yrotation
      JOINT LeftAnkle
      {
        OFFSET 0 -40.1986 0
        CHANNELS 6 Xposition Yposition Zposition Zrotation Xrotation Yrotation
        JOINT LeftToe
        {
          OFFSET 0 -4.4182 9.239
          CHANNELS 6 Xposition Yposition Zposition Zrotation Xrotation Yrotation
          End Site
          {
            OFFSET 0 0 6.1981
          }
        }
      }
    }
  }
}
MOTION
Frames:	4
Frame Time:	0.0333333
5.72205e-005 65.662 3.42586 0 0 -0 0 8.7983 -4.7612 0 0 -0 0 8.0291 0.4195 0 0 -0 0 9.9351 -2.2114 0 0 -0 0 22.3885 -0.4656 0 0 -0 -0.0001 12.643 3.4389 0 0 -0 2.2603 21.606 7.4023 0 0 -12.5014 13.5163 -1.1332 -5.0146 88.1196 14.2451 10.6914 -0.0995 -28.05 -0.2431 -0.00160068 -0.00239207 0.000740045 0.0679 -23.3996 -0.1402 -8.4365e-005 7.00714e-005 -9.52055e-007 0.7932 -9.069 2.5189 9.93923e-017 -1.98785e-016 -1.59028e-015 -0.8272 -3.3923 0.5977 9.93923e-017 -5.96354e-016 -1.59028e-015 -0.5649 -2.3158 0.4082 -9.93923e-017 -5.96354e-016 -1.59028e-015 0.9159 -9.2044 0.2193 9.93923e-017 -1.98785e-016 -1.59028e-015 0.0117 -4.1944 -0.0248 -0.0128176 0.00232552 8.52707e-005 0.0071 -2.3249 -0.0142 9.93923e-017 5.96354e-016 -0 0.6113 -8.7231 -2.0637 9.93923e-017 -1.98785e-016 -1.59028e-015 -0.1927 -3.8059 -0.2383 -0.0160551 0.00299681 0.000857156 -0.1091 -2.1688 -0.1362 -2.48481e-016 0 3.18055e-015 -0.6151 -8.0947 -3.5641 9.93923e-017 -1.98785e-016 -1.59028e-015 -0.4882 -2.341 -0.6462 -0.0125865 0.0031206 0.00282719 -0.3575 -1.7167 -0.4742 0 1.98785e-016 -0 -1.42 -1.8761 1.4223 9.93923e-017 -1.98785e-016 -1.59028e-015 -1.1471 -3.4929 2.6334 9.93923e-017 -5.96354e-016 -1.59028e-015 -0.823 -2.3 1.6571 -9.93923e-017 -5.96354e-016 -1.59028e-015 -2.2603 21.606 7.4023 -0.865644 0.16582 7.03859 -13.5187 -1.1334 -5.0155 -88.0329 10.2057 -10.5567 0.0994 -28.0499 -0.2431 0.0015593 -0.00248883 -0.000788628 -0.0679 -23.3996 -0.1402 7.87605e-005 4.10553e-005 1.24965e-005 -0.7932 -9.0691 2.5189 -3.97569e-016 -7.95139e-016 3.18055e-015 0.8272 -3.3923 0.5977 -1.98785e-016 -3.97569e-016 3.18055e-015 0.565 -2.3158 0.4082 -1.98785e-016 0 3.18055e-015 -0.916 -9.2044 0.2193 -3.97569e-016 -7.95139e-016 3.18055e-015 -0.0117 -4.1944 -0.0248 0.0129473 0.00231697 -8.70038e-005 -0.0071 -2.3249 -0.0142 9.93923e-017 -7.95139e-016 1.59028e-015 -0.6113 -8.7231 -2.0637 -3.97569e-016 -7.95139e-016 3.18055e-015 0.1927 -3.8059 -0.2383 0.0163314 0.00303369 -0.000872333 0.1091 -2.1688 -0.1362 3.97569e-016 7.95139e-016 -3.18055e-015 0.6151 -8.0947 -3.564 -3.97569e-016 -7.95139e-016 3.18055e-015 0.4882 -2.341 -0.6462 0.0145763 0.00367772 -0.00326275 0.3574 -1.7166 -0.4742 9.93923e-017 -3.97569e-016 -0 1.4199 -1.8761 1.4221 -3.97569e-016 -7.95139e-016 3.18055e-015 1.1472 -3.4929 2.6336 -1.98785e-016 -3.97569e-016 3.18055e-015 0.8229 -2.3 1.6571 -1.98785e-016 0 3.18055e-015 -9.412 3.9771 -0.7758 3.42482 1.32465 -0.0626183 -0.7531 -40.938 0 0.000117508 0.717283 0.000978199 0 -40.1986 0 -3.4257 -2.04197 -0.0604716 8.88178e-016 -4.4182 9.239 6.47761e-025 0 -0 9.4119 3.9773 -0.7758 -3.42483 1.34017 0.0627307 0.7532 -40.9383 -2.22045e-016 -0.000193936 0.682302 -0.0013703 -8.88179e-016 -40.1986 0 3.42574 -2.02253 0.0595886 -8.88178e-016 -4.4182 9.239 -8.45714e-024 0 -7.40531e-025 
-60.339 4.48174 -7.5432 -96.6666 6.4033e-007 3.75951 8.88178e-016 8.7983 -4.7612 0.0463011 1.03969 -0.275594 0 8.0291 0.4195 0.0975358 2.07916 -0.552161 -8.88179e-016 9.9351 -2.2114 0.0975191 2.07917 -0.552164 -4.44089e-016 22.3885 -0.4656 5.93005e-005 56.2167 -5.37244e-005 -0.0001 12.643 3.4389 -0.000258332 -87.1038 -0.000249913 2.2603 21.606 7.4023 -17.7998 -3.068 -4.1665 13.5163 -1.1332 -5.0146 84.5314 -64.7121 4.81689 -0.0995001 -28.05 -0.2431 -15.0863 -37.3401 10.3004 0.0679 -23.3996 -0.1402 -21.7545 -30.1923 41.0293 0.7932 -9.069 2.5189 -6.36111e-015 1.49089e-015 4.96962e-016 -0.8272 -3.3923 0.5977 -3.18055e-015 3.77691e-015 -2.38542e-015 -0.5649 -2.3158 0.4082 4.13804e-033 2.38542e-015 -9.93923e-017 0.9159 -9.2044 0.2193 -6.36111e-015 1.49089e-015 4.96962e-016 0.0117 -4.1944 -0.0248 -0.0128043 0.00230644 9.31149e-005 0.0071 -2.3249 -0.0142 3.18055e-015 -8.42322e-008 -4.17448e-015 0.6113 -8.7231 -2.0637 -6.36111e-015 1.49089e-015 4.96962e-016 -0.1927 -3.8059 -0.2383 -0.0160224 0.00299346 0.000866256 -0.1091 -2.1688 -0.1362 -3.18055e-015 2.28602e-015 2.08724e-015 -0.6151 -8.0947 -3.5641 -6.36111e-015 1.49089e-015 4.96962e-016 -0.4882 -2.341 -0.6462 -0.0125931 0.00310614 0.00283371 -0.3575 -1.7167 -0.4742 -1.59028e-014 3.77691e-015 -2.28602e-015 -1.42 -1.8761 1.4223 -6.36111e-015 1.49089e-015 4.96962e-016 -1.1471 -3.4929 2.6334 -3.18055e-015 3.77691e-015 -2.38542e-015 -0.823 -2.3 1.6571 4.13804e-033 2.38542e-015 -9.93923e-017 -2.2603 21.606 7.4023 16.9505 -2.84356 -1.43333 -13.5187 -1.1334 -5.0155 -85.5547 -68.7761 -6.34328 0.0994 -28.0499 -0.2431 15.2324 -37.0077 -10.5329 -0.0679 -23.3996 -0.1402 23.3194 -29.99 -40.32 -0.793201 -9.0691 2.5189 1.27222e-014 9.93923e-017 4.22417e-016 0.827201 -3.3923 0.5977 6.36111e-015 9.93923e-017 1.73937e-016 0.565 -2.3158 0.4082 9.54166e-015 -4.96962e-017 3.97569e-016 -0.916001 -9.2044 0.2193 1.27222e-014 9.93923e-017 4.22417e-016 -0.0117 -4.1944 -0.0248 0.0129915 0.00233182 -7.18876e-005 -0.0071 -2.3249 -0.0142 3.44836e-034 -9.93923e-017 1.98785e-016 -0.6113 -8.7231 -2.0637 1.27222e-014 9.93923e-017 4.22417e-016 0.1927 -3.8059 -0.2383 0.0163463 0.00304345 -0.000870101 0.1091 -2.1688 -0.1362 -8.62091e-035 -2.48481e-017 -1.98785e-016 0.6151 -8.0947 -3.564 1.27222e-014 9.93923e-017 4.22417e-016 0.4882 -2.341 -0.6462 0.0146237 0.00368764 -0.00325833 0.3574 -1.7166 -0.4742 9.54166e-015 -1.09332e-014 -6.65929e-015 1.4199 -1.8761 1.4221 1.27222e-014 9.93923e-017 4.22417e-016 1.1472 -3.4929 2.6336 6.36111e-015 9.93923e-017 1.73937e-016 0.822901 -2.3 1.6571 9.54166e-015 -4.96962e-017 3.97569e-016 -9.412 3.9771 -0.7758 -101.383 -30.8684 -72.4354 -0.7531 -40.938 0 99.1091 5.26549 -92.5343 7.10543e-015 -40.1986 -1.42109e-014 -21.7458 34.7185 48.2559 0 -4.4182 9.239 5.91384e-015 1.39149e-015 -0 9.4119 3.9773 -0.7758 4.02395 -83.6935 -10.1483 0.7532 -40.9383 0 -34.9991 60.1049 51.259 1.77636e-015 -40.1986 -7.10543e-015 27.5901 29.8785 -36.9587 0 -4.4182 9.23901 -1.37348e-005 -2.26219e-008 -1.07534e-006 
-57.5452 8.10391 -5.66657 -90 9.60495e-007 3.50023 -1.77636e-015 8.7983 -4.7612 0.0423441 0.639719 -0.256285 -1.77636e-015 8.0291 0.4195 0.087524 1.27925 -0.513095 -8.88178e-016 9.9351 -2.2114 0.0875497 1.27924 -0.513091 1.77636e-015 22.3885 -0.4656 5.24165e-005 48.4326 -6.87709e-005 -0.0001 12.643 3.4389 -4.96107e-006 -75.7225 -5.55157e-006 2.2603 21.606 7.4023 -16.5774 -2.3629 -2.42358 13.5163 -1.1332 -5.0146 85.0871 -60.028 5.52887 -0.0995 -28.05 -0.2431 -15.6771 -38.4108 8.61944 0.0679 -23.3996 -0.1402 -18.9694 -25.527 39.8397 0.7932 -9.069 2.5189 6.36111e-015 1.98785e-016 3.97569e-016 -0.8272 -3.3923 0.5977 -1.37935e-033 1.98785e-016 3.97569e-016 -0.5649 -2.3158 0.4082 3.18055e-015 5.96354e-016 5.96354e-016 0.9159 -9.2044 0.2193 6.36111e-015 1.98785e-016 3.97569e-016 0.0117 -4.1944 -0.0248 -0.0128354 0.00233734 8.61412e-005 0.0071 -2.3249 -0.0142 -2.49381e-006 9.3015e-006 8.36833e-008 0.6113 -8.7231 -2.0637 6.36111e-015 1.98785e-016 3.97569e-016 -0.1927 -3.8059 -0.2383 -0.0160789 0.00299647 0.000866604 -0.1091 -2.1688 -0.1362 -4.92465e-006 5.9918e-006 3.58132e-006 -0.6151 -8.0947 -3.5641 6.36111e-015 1.98785e-016 3.97569e-016 -0.4882 -2.341 -0.6462 -0.0125574 0.00312647 0.00281399 -0.3575 -1.7167 -0.4742 6.36111e-015 0 -1.98785e-016 -1.42 -1.8761 1.4223 6.36111e-015 1.98785e-016 3.97569e-016 -1.1471 -3.4929 2.6334 -1.37935e-033 1.98785e-016 3.97569e-016 -0.823 -2.3 1.6571 3.18055e-015 5.96354e-016 5.96354e-016 -2.2603 21.606 7.4023 15.6694 -2.46623 -3.65253 -13.5187 -1.1334 -5.0155 -85.9604 -63.8592 -6.85827 0.0994 -28.0499 -0.2431 15.3261 -37.2674 -9.19474 -0.0679 -23.3996 -0.1402 21.8006 -26.4698 -38.6516 -0.7932 -9.0691 2.5189 -6.36111e-015 4.96962e-017 -0 0.8272 -3.3923 0.5977 -3.18055e-015 2.48481e-016 9.93923e-017 0.565 -2.3158 0.4082 -2.58627e-034 1.49089e-016 9.93923e-017 -0.916 -9.2044 0.2193 -6.36111e-015 4.96962e-017 -0 -0.0117 -4.1944 -0.0248 0.0129744 0.00232416 -9.0441e-005 -0.0071 -2.3249 -0.0142 -3.18055e-015 -9.0944e-015 -8.84592e-015 -0.6113 -8.7231 -2.0637 -6.36111e-015 4.96962e-017 -0 0.1927 -3.8059 -0.2383 0.0163739 0.00304123 -0.000879162 0.1091 -2.1688 -0.1362 0 9.93923e-017 -0 0.6151 -8.0947 -3.564 -6.36111e-015 4.96962e-017 -0 0.4882 -2.341 -0.6462 0.0145903 0.00368769 -0.00327798 0.3574 -1.7166 -0.4742 -1.27222e-014 -1.98785e-016 9.93923e-017 1.4199 -1.8761 1.4221 -6.36111e-015 4.96962e-017 -0 1.1472 -3.4929 2.6336 -3.18055e-015 2.48481e-016 9.93923e-017 0.8229 -2.3 1.6571 -2.58627e-034 1.49089e-016 9.93923e-017 -9.412 3.9771 -0.7758 -93.0816 -31.3205 -68.1017 -0.7531 -40.938 7.10543e-015 91.1955 5.30935 -96.8367 0 -40.1986 1.42109e-014 -23.7501 30.3858 53.7135 0 -4.4182 9.239 -2.66975e-006 -7.89014e-008 -8.36086e-007 9.4119 3.9773 -0.7758 6.69771 -78.7339 -5.9575 0.7532 -40.9383 0 -29.3853 59.9812 44.9021 0 -40.1986 0 23.255 27.3402 -32.5361 8.88179e-016 -4.4182 9.239 1.07906e-006 -1.4041e-006 -3.19353e-006 
-58.061 7.72387 -4.6733 -90 2.56132e-006 3.50023 8.88178e-016 8.7983 -4.7612 0.0439457 0.332302 -0.255757 0 8.0291 0.4195 0.0893892 0.664408 -0.511792 8.88179e-016 9.9351 -2.2114 0.0893821 0.664407 -0.511792 8.88179e-016 22.3885 -0.4656 -0.000432432 44.7472 0.000538823 -0.0001 12.643 3.4389 -4.75897e-006 -70.6156 7.15511e-006 2.2603 21.606 7.4023 -16.5732 -1.89621 -0.248193 13.5163 -1.1332 -5.0146 85.1349 -60.7391 5.5925 -0.0995 -28.05 -0.2431 -17.6226 -41.7919 7.22106 0.0679 -23.3996 -0.1402 -17.9163 -23.0813 41.1729 0.7932 -9.069 2.5189 -6.36111e-015 -1.98785e-016 -1.98785e-016 -0.8272 -3.3923 0.5977 -3.18055e-015 -3.97569e-016 -1.98785e-016 -0.5649 -2.3158 0.4082 -6.36111e-015 0 -0 0.9159 -9.2044 0.2193 -6.36111e-015 -1.98785e-016 -1.98785e-016 0.0117 -4.1944 -0.0248 -0.0128356 0.00232451 8.94545e-005 0.0071 -2.3249 -0.0142 9.54166e-015 0 -0 0.6113 -8.7231 -2.0637 -6.36111e-015 -1.98785e-016 -1.98785e-016 -0.1927 -3.8059 -0.2383 -0.0160549 0.00300125 0.000851607 -0.1091 -2.1688 -0.1362 6.36111e-015 0 -1.98785e-016 -0.6151 -8.0947 -3.5641 -6.36111e-015 -1.98785e-016 -1.98785e-016 -0.4882 -2.341 -0.6462 -0.0125261 0.00311142 0.0028198 -0.3575 -1.7167 -0.4742 -4.24137e-007 1.74755e-005 -1.35823e-005 -1.42 -1.8761 1.4223 -6.36111e-015 -1.98785e-016 -1.98785e-016 -1.1471 -3.4929 2.6334 -3.18055e-015 -3.97569e-016 -1.98785e-016 -0.823 -2.3 1.6571 -6.36111e-015 0 -0 -2.2603 21.606 7.4023 15.6004 -2.29996 -6.28615 -13.5187 -1.1334 -5.0155 -86.126 -64.356 -7.03232 0.0994 -28.0499 -0.2431 16.7178 -39.8704 -8.22626 -0.0679 -23.3996 -0.1402 22.0019 -25.1361 -39.5152 -0.7932 -9.06911 2.5189 5.17255e-034 -1.98785e-016 1.49089e-016 0.8272 -3.3923 0.5977 -6.36111e-015 -1.49089e-016 1.49089e-016 0.565 -2.3158 0.4082 -1.27222e-014 4.96962e-017 -0 -0.916 -9.20441 0.2193 5.17255e-034 -1.98785e-016 1.49089e-016 -0.0117 -4.1944 -0.0248 0.0129334 0.00231317 -8.65489e-005 -0.0071 -2.3249 -0.0142 -1.43642e-005 -5.2018e-006 6.89916e-006 -0.6113 -8.7231 -2.0637 5.17255e-034 -1.98785e-016 1.49089e-016 0.1927 -3.8059 -0.2383 0.0163157 0.00301865 -0.000860245 0.1091 -2.1688 -0.1362 1.27222e-014 -9.93923e-017 -9.93923e-017 0.6151 -8.0947 -3.564 5.17255e-034 -1.98785e-016 1.49089e-016 0.4882 -2.341 -0.6462 0.0146304 0.00369561 -0.00327287 0.3574 -1.7166 -0.4742 -6.36111e-015 -9.39258e-015 -8.94531e-015 1.4199 -1.8761 1.4221 5.17255e-034 -1.98785e-016 1.49089e-016 1.1472 -3.4929 2.6336 -6.36111e-015 -1.49089e-016 1.49089e-016 0.8229 -2.3 1.6571 -1.27222e-014 4.96962e-017 -0 -9.412 3.9771 -0.7758 -94.2265 -29.9987 -68.5411 -0.7531 -40.938 7.10543e-015 92.1415 2.59609 -109.898 0 -40.1986 0 -29.7684 24.5005 66.8953 -1.42109e-014 -4.4182 9.239 2.99997e-007 -7.61157e-008 1.64905e-006 9.4119 3.9773 -0.7758 5.75714 -79.7211 -6.57694 0.7532 -40.9383 0 -31.7388 62.2519 46.9187 0 -40.1986 -7.10543e-015 22.5839 26.0442 -31.6017 -1.77636e-015 -4.4182 9.239 -7.95139e-016 -3.18055e-015 1.59028e-015 
